# xmcd
#
# Track frame offsets:
#	150
#	14093
#	32823
#
# Disc length: 554 seconds
#
# Revision: 1
# Processed by: cddbd v1.5.1PL2 Copyright (c) Steve Scherf et al.
# Submitted via: audiograbber 1.83.01
#
DISCID=20022803
DTITLE=Autumn Leaves - The Intercity Express (Single)
DYEAR=1993
DGENRE=
TTITLE0=The Intercity Express
TTITLE1=20 Years Of Gold
TTITLE2=After The Goldrush
EXTD=
EXTT0=
EXTT1=
EXTT2=
PLAYORDER=
